<svg xmlns="http://www.w3.org/2000/svg" width="16" height="16" viewBox="0 0 16 16" fill="none">
  <path d="M14.3086 3.62678L8.19221 0.0968543C8.08315 0.0338837 7.95942 0.000732422 7.83348 0.000732422C7.70754 0.000732422 7.58382 0.0338837 7.47475 0.0968543L1.37631 3.62678C1.26735 3.68968 1.17685 3.78014 1.11388 3.88907C1.05092 3.99799 1.01771 4.12157 1.01758 4.24738V11.3144C1.01771 11.4402 1.05092 11.5638 1.11388 11.6727C1.17685 11.7816 1.26735 11.8721 1.37631 11.935L7.47475 15.4649C7.58382 15.5279 7.70754 15.561 7.83348 15.561C7.95942 15.561 8.08315 15.5279 8.19221 15.4649L14.2907 11.935C14.3996 11.8721 14.4901 11.7816 14.5531 11.6727C14.616 11.5638 14.6493 11.4402 14.6494 11.3144V4.24738C14.6511 4.1233 14.6206 4.00089 14.5609 3.89211C14.5011 3.78334 14.4142 3.69191 14.3086 3.62678ZM7.83348 7.26432L5.35465 5.82939L10.8432 2.6582L13.3221 4.09313L7.83348 7.26432ZM7.83348 0.925525L9.94641 2.14521L4.45782 5.31281L2.34489 4.09313L7.83348 0.925525ZM1.89647 4.87157L7.38507 8.03918V14.378L1.89647 11.2104V4.87157ZM8.2819 14.378V8.03918L13.7705 4.87157V11.2104L8.2819 14.378ZM2.97625 10.0911C3.04993 10.1391 3.11133 10.2037 3.15556 10.2797C3.19979 10.3557 3.22561 10.441 3.23095 10.5288V11.1135C3.23095 11.2785 3.11616 11.3431 2.97625 11.2606L2.45251 10.9664C2.37796 10.9185 2.31595 10.8534 2.27165 10.7767C2.22734 10.6999 2.20202 10.6137 2.19781 10.5252V9.93328C2.19781 9.77544 2.3126 9.70728 2.45251 9.78979L2.97625 10.0911Z" fill="#F5BC00"/>
</svg>