<svg xmlns="http://www.w3.org/2000/svg" width="16" height="16" viewBox="0 0 16 16" fill="none">
  <path d="M4.63362 14.9057C3.71311 14.9063 2.79284 14.5577 2.09191 13.8605L2.0388 13.8071C1.36442 13.1366 0.991699 12.2377 0.991699 11.2794C0.991699 10.3212 1.36415 9.42223 2.04095 8.74852L3.31412 7.56233C3.53479 7.35601 3.88258 7.36721 4.09012 7.58796C4.29738 7.80844 4.28588 8.15435 4.06437 8.36044L2.80437 9.53431C2.34826 9.98859 2.09004 10.6132 2.09004 11.2794C2.09004 11.9456 2.34824 12.5697 2.81724 13.0362L2.87058 13.0897C3.84207 14.0553 5.42546 14.0553 6.39908 13.0875L9.14244 10.3553C10.1394 9.36132 10.1839 7.84819 9.24272 6.91105L9.19231 6.86086C9.12205 6.79119 8.89842 6.61849 8.68767 6.55897C8.3962 6.4762 8.22699 6.17382 8.31013 5.8834C8.39375 5.59327 8.69731 5.42511 8.98904 5.50732C9.42717 5.63169 9.81116 5.93065 9.9688 6.08786L10.0193 6.13804C11.3953 7.50867 11.3513 9.70031 9.91948 11.1283L7.17531 13.8605C6.47469 14.5577 5.55389 14.9057 4.63362 14.9057ZM6.36904 9.75747C6.22853 9.75747 6.08775 9.70409 5.98077 9.59734C4.5926 8.2147 4.61996 6.18161 6.04592 4.76267L8.78957 2.03052C10.1903 0.635642 12.4706 0.634538 13.873 2.03052L13.9251 2.08259C14.6008 2.75495 14.9735 3.65335 14.9735 4.61159C14.973 5.56956 14.6002 6.46827 13.9234 7.14169L12.6337 8.32678C12.4122 8.53124 12.0636 8.5179 11.8576 8.29583C11.6523 8.07403 11.6661 7.72811 11.8893 7.52337L13.163 6.35347C13.6161 5.90159 13.8752 5.27755 13.8752 4.61132C13.8752 3.94535 13.6167 3.32158 13.1474 2.85447L13.0954 2.80244C12.1236 1.83513 10.54 1.8346 9.5661 2.8035L6.82245 5.53564C5.83085 6.5227 5.80405 7.87489 6.75728 8.8243C6.97181 9.03785 6.97181 9.38377 6.75728 9.59731C6.65004 9.70409 6.50957 9.75747 6.36904 9.75747Z" fill="#64758B"/>
</svg>