<svg width="10" height="10" viewBox="0 0 10 10" fill="none" xmlns="http://www.w3.org/2000/svg">
<path d="M2.98701 7.76316H6.81818V9.21053C6.81818 9.64474 6.46753 10 6.03896 10H0.779221C0.350649 10 0 9.64474 0 9.21053V3.88158C0 3.44737 0.350649 3.09211 0.779221 3.09211H2.20779V6.97368C2.20779 7.40789 2.55844 7.76316 2.98701 7.76316Z" fill="#9F9F9F"/>
<path d="M10 0.789474V6.11842C10 6.55263 9.64935 6.90789 9.22078 6.90789H3.96104C3.53247 6.90789 3.18182 6.55263 3.18182 6.11842V0.789474C3.18182 0.355263 3.53247 0 3.96104 0H9.22078C9.64935 0 10 0.355263 10 0.789474Z" fill="#9F9F9F"/>
</svg>
