<svg xmlns="http://www.w3.org/2000/svg" width="14" height="14" viewBox="0 0 14 14" fill="none">
  <g clip-path="url(#clip0_530_1611)">
    <path d="M5.1439 0.0222778H1.11333C0.510834 0.0222778 0.0224609 0.510651 0.0224609 1.11295V5.1439C0.0224609 5.74623 0.510834 6.2346 1.11333 6.2346H5.1439C5.74638 6.2346 6.23474 5.74623 6.23474 5.1439V1.11295C6.23474 0.510651 5.7464 0.0222778 5.1439 0.0222778ZM5.45822 4.64001C5.45822 5.09177 5.09195 5.45805 4.63997 5.45805H1.61723C1.16525 5.45805 0.798982 5.09177 0.798982 4.64001V1.61688C0.798982 1.16508 1.16525 0.79884 1.61723 0.79884H4.63997C5.09195 0.79884 5.45822 1.16511 5.45822 1.61688V4.64001ZM12.9095 0.0222778H8.8785C8.27621 0.0222778 7.78788 0.510651 7.78788 1.11295V5.1439C7.78788 5.74623 8.27623 6.2346 8.8785 6.2346H12.9095C13.5118 6.2346 14.0002 5.74623 14.0002 5.1439V1.11295C14.0002 0.510651 13.5118 0.0222778 12.9095 0.0222778ZM13.2236 4.64001C13.2236 5.09177 12.8574 5.45805 12.4054 5.45805H9.38262C8.93064 5.45805 8.56439 5.09177 8.56439 4.64001V1.61688C8.56439 1.16508 8.93064 0.79884 9.38262 0.79884H12.4054C12.8574 0.79884 13.2236 1.16511 13.2236 1.61688V4.64001H13.2236ZM12.9095 7.78767H8.8785C8.27621 7.78767 7.78788 8.27603 7.78788 8.87833V12.9093C7.78788 13.5116 8.27623 14 8.8785 14H12.9095C13.5118 14 14.0002 13.5116 14.0002 12.9093V8.87834C14.0002 8.27603 13.5118 7.78767 12.9095 7.78767ZM13.2236 12.4054C13.2236 12.8571 12.8574 13.2234 12.4054 13.2234H9.38262C8.93064 13.2234 8.56439 12.8571 8.56439 12.4054V9.38228C8.56439 8.93049 8.93064 8.56422 9.38262 8.56422H12.4054C12.8574 8.56422 13.2236 8.93049 13.2236 9.38228V12.4054H13.2236ZM5.1587 7.78767H1.09853C0.504189 7.78767 0.0224609 8.2694 0.0224609 8.86357V12.9241C0.0224609 13.5182 0.504203 14 1.09853 14H5.1587C5.75305 14 6.23477 13.5182 6.23477 12.9241V8.86358C6.23474 8.26941 5.75304 7.78767 5.1587 7.78767ZM5.45822 12.4054C5.45822 12.8571 5.09195 13.2234 4.63997 13.2234H1.61723C1.16525 13.2234 0.798982 12.8571 0.798982 12.4054V9.38228C0.798982 8.93049 1.16525 8.56422 1.61723 8.56422H4.63997C5.09195 8.56422 5.45822 8.93049 5.45822 9.38228V12.4054Z" fill="#FFA901"/>
  </g>
  <defs>
    <clipPath id="clip0_530_1611">
      <rect width="14" height="14" fill="white"/>
    </clipPath>
  </defs>
</svg>