<svg xmlns="http://www.w3.org/2000/svg" width="16" height="16" viewBox="0 0 16 16" fill="none">
  <path d="M11.0785 8.015C10.9502 8.015 10.8219 7.96666 10.7252 7.86833C10.5302 7.67333 10.5302 7.35666 10.7252 7.16166L12.3669 5.52C12.7435 5.14333 12.9702 4.66666 13.0052 4.17666C13.0385 3.715 12.8935 3.29666 12.5969 3C11.9669 2.37 10.8369 2.47166 10.0769 3.23L8.4352 4.87166C8.2402 5.06666 7.92353 5.06666 7.72853 4.87166C7.53353 4.67666 7.53353 4.36 7.72853 4.165L9.3702 2.52333C10.5202 1.375 12.2835 1.27333 13.3035 2.29333C13.8085 2.79666 14.0569 3.49166 14.0035 4.24833C13.9502 4.97833 13.6219 5.68 13.0752 6.22666L11.4335 7.86833C11.3352 7.96666 11.2069 8.015 11.0785 8.015ZM4.6752 13.3817C4.0202 13.3817 3.3902 13.15 2.91853 12.6783C2.41353 12.175 2.1652 11.48 2.21853 10.7233C2.27186 9.99333 2.6002 9.29166 3.14686 8.745L4.78853 7.10333C4.98353 6.90833 5.3002 6.90833 5.4952 7.10333C5.6902 7.29833 5.6902 7.615 5.4952 7.81L3.85353 9.45166C3.47686 9.82833 3.2502 10.305 3.2152 10.795C3.18186 11.2567 3.32686 11.675 3.62353 11.9717C4.25353 12.6017 5.38353 12.5 6.14353 11.7417L7.7852 10.1C7.9802 9.905 8.29686 9.905 8.49186 10.1C8.68686 10.295 8.68686 10.6117 8.49186 10.8067L6.85353 12.45C6.2352 13.0667 5.43853 13.3817 4.6752 13.3817ZM12.8369 12.7117C12.7085 12.7117 12.5802 12.6633 12.4835 12.565L11.1002 11.1817C10.9052 10.9867 10.9052 10.67 11.1002 10.475C11.2952 10.28 11.6119 10.28 11.8069 10.475L13.1902 11.8583C13.3852 12.0533 13.3852 12.37 13.1902 12.565C13.0935 12.6633 12.9652 12.7117 12.8369 12.7117ZM14.1252 9.6H12.1702C11.8935 9.6 11.6702 9.37666 11.6702 9.1C11.6702 8.82333 11.8935 8.6 12.1702 8.6H14.1252C14.4019 8.6 14.6252 8.82333 14.6252 9.1C14.6252 9.37666 14.4019 9.6 14.1252 9.6ZM9.7252 14C9.44853 14 9.2252 13.7767 9.2252 13.5V11.545C9.2252 11.2683 9.44853 11.045 9.7252 11.045C10.0019 11.045 10.2252 11.2683 10.2252 11.545V13.5C10.2252 13.7767 10.0019 14 9.7252 14ZM4.79686 4.67166C4.66853 4.67166 4.5402 4.62333 4.44353 4.525L3.0602 3.14166C2.8652 2.94666 2.8652 2.63 3.0602 2.435C3.2552 2.24 3.57186 2.24 3.76686 2.435L5.1502 3.81833C5.3452 4.01333 5.3452 4.33 5.1502 4.525C5.05186 4.62333 4.92353 4.67166 4.79686 4.67166Z" fill="black"/>
  <path d="M6.5249 3.955C6.24824 3.955 6.0249 3.73167 6.0249 3.455V1.5C6.0249 1.22333 6.24824 1 6.5249 1C6.80157 1 7.0249 1.22333 7.0249 1.5V3.455C7.0249 3.73167 6.7999 3.955 6.5249 3.955Z" fill="black"/>
  <path d="M4.08 6.40002H2.125C1.84833 6.40002 1.625 6.17669 1.625 5.90002C1.625 5.62336 1.84833 5.40002 2.125 5.40002H4.08C4.35667 5.40002 4.58 5.62336 4.58 5.90002C4.58 6.17669 4.35667 6.40002 4.08 6.40002Z" fill="black"/>
</svg>