<svg xmlns="http://www.w3.org/2000/svg" width="12" height="16" viewBox="0 0 12 16" fill="none">
  <path d="M4.03224 16C3.97658 15.999 3.92158 15.9877 3.87 15.9667C3.78564 15.931 3.71544 15.8684 3.67031 15.7886C3.62517 15.7089 3.60763 15.6165 3.62039 15.5257L4.48986 9.22725H0.421222C0.350935 9.22813 0.28157 9.21119 0.219605 9.178C0.15764 9.14481 0.105094 9.09647 0.066873 9.03747C0.028652 8.97848 0.00600281 8.91076 0.00103877 8.84065C-0.00392527 8.77053 0.00895817 8.7003 0.0384866 8.63651L3.65783 0.249617C3.69031 0.175201 3.74385 0.111915 3.81186 0.0675614C3.87987 0.0232075 3.95937 -0.000275684 4.04056 7.05583e-06H9.99376C10.0656 -0.000411056 10.1362 0.0177597 10.1989 0.0527519C10.2616 0.087744 10.3142 0.138366 10.3515 0.199695C10.388 0.262938 10.4073 0.334677 10.4073 0.407703C10.4073 0.480729 10.388 0.552469 10.3515 0.615711L7.85544 5.45814H11.3001C11.3773 5.45876 11.4529 5.48089 11.5183 5.52203C11.5837 5.56318 11.6363 5.62173 11.6703 5.69111C11.7013 5.7576 11.7142 5.8311 11.7076 5.90416C11.701 5.97722 11.6752 6.04724 11.6329 6.10713L4.36506 15.8336C4.32631 15.8853 4.27606 15.9272 4.21829 15.9561C4.16053 15.985 4.09683 16 4.03224 16ZM1.05357 8.39522H4.98908C5.04815 8.39529 5.10652 8.40795 5.16032 8.43233C5.21412 8.45672 5.26211 8.49229 5.3011 8.53666C5.34018 8.58118 5.3693 8.63353 5.38652 8.6902C5.40374 8.74688 5.40865 8.80659 5.40094 8.86532L4.66875 14.0447L10.493 6.28186H7.19813C7.12721 6.28164 7.05753 6.2633 6.9957 6.22858C6.93386 6.19386 6.88193 6.1439 6.84483 6.08346C6.80774 6.02303 6.7867 5.95411 6.78374 5.88325C6.78077 5.8124 6.79596 5.74196 6.82787 5.67863L9.32397 0.8362H4.33178L1.05357 8.39522Z" fill="black"/>
</svg>