<svg xmlns="http://www.w3.org/2000/svg" width="12" height="12" viewBox="0 0 12 12" fill="none">
  <g clip-path="url(#clip0_530_1594)">
    <path d="M11.6221 1.49751L10.2968 0.180451C10.1762 0.0597598 10.0191 0 9.86329 0C9.70628 0 9.54926 0.0597598 9.42974 0.180451C9.18953 0.420662 9.18953 0.808515 9.42974 1.04873L10.2886 1.90997L9.65355 2.57201C9.44615 2.78527 9.44615 3.12743 9.65355 3.33952C9.75432 3.44732 9.89024 3.50005 10.025 3.50005H10.0309L10.7491 3.49888V9.11747C10.7491 9.32604 10.5804 9.50064 10.373 9.50064H10.366C10.1621 9.49712 9.99805 9.33073 9.99805 9.12567V5.62445C9.99805 4.72688 9.27038 4.00039 8.37399 4.00039C8.16658 4.00039 7.99902 3.83166 7.99902 3.62543V1.00068C7.99902 0.448784 7.55141 0.00117176 6.99951 0.00117176H1.75002C1.19812 0.00117176 0.750511 0.448784 0.750511 1.00068V10.6361C0.750511 10.6993 0.698953 10.7521 0.635678 10.7521C0.468116 10.7521 0.313444 10.8177 0.198612 10.9255C0.0826072 11.031 0.0087863 11.1809 0.000583974 11.3485C-0.0146489 11.7059 0.270089 12 0.625132 12H8.1162C8.45952 12 8.74661 11.7258 8.75012 11.3825C8.75364 11.0333 8.47359 10.7509 8.12557 10.7509C8.05527 10.7509 7.99902 10.6947 7.99902 10.6244V5.62679C7.99902 5.41939 8.16658 5.25183 8.37399 5.25183C8.4771 5.25183 8.57201 5.29401 8.63998 5.36198C8.70794 5.42994 8.75012 5.52368 8.75012 5.62797V9.12684C8.75012 10.0244 9.47778 10.7521 10.3742 10.7521C11.2717 10.7521 11.9994 10.0232 11.9994 9.12684V2.39508C11.9994 2.04238 11.8541 1.72483 11.6221 1.49751ZM2.06288 2.0623C2.06288 1.6475 2.39918 1.31237 2.81281 1.31237H6C6.41363 1.31237 6.74993 1.6475 6.74993 2.0623V4.1246C6.74993 4.53823 6.41363 4.87452 6 4.87452H2.81281C2.39918 4.87452 2.06288 4.53823 2.06288 4.1246V2.0623ZM11.2495 2.74778L10.7468 2.74895H10.523L10.83 2.42906L11.1511 2.09511C11.2155 2.18299 11.2495 2.2861 11.2495 2.39508V2.74778Z" fill="#FFA901"/>
  </g>
  <defs>
    <clipPath id="clip0_530_1594">
      <rect width="12" height="12" fill="white"/>
    </clipPath>
  </defs>
</svg>