<svg xmlns="http://www.w3.org/2000/svg" width="10" height="7" viewBox="0 0 10 7" fill="none">
  <path d="M5.23391 0.353806L8.85266 5.09531C8.95449 5.22874 9.01698 5.38798 9.03306 5.55506C9.04915 5.72213 9.01819 5.89038 8.94369 6.04078C8.86919 6.19119 8.75411 6.31777 8.61146 6.40621C8.46881 6.49466 8.30426 6.54145 8.13642 6.54131L0.90004 6.54131C0.732256 6.54131 0.567812 6.49442 0.425268 6.40592C0.282725 6.31741 0.16776 6.19083 0.0933494 6.04045C0.0189391 5.89007 -0.011953 5.72188 0.00416049 5.55487C0.0202739 5.38786 0.0827512 5.22869 0.18454 5.09531L3.80329 0.353806C3.88729 0.2438 3.99553 0.15465 4.11959 0.0932862C4.24365 0.0319228 4.38019 0 4.5186 0C4.65701 0 4.79355 0.0319228 4.91762 0.0932862C5.04168 0.15465 5.14992 0.2438 5.23391 0.353806Z" fill="#04B03E"/>
</svg>