<svg xmlns="http://www.w3.org/2000/svg" width="16" height="16" viewBox="0 0 16 16" fill="none">
  <path d="M12.7597 14.872C10.973 14.872 9.51933 13.4183 9.51933 11.6313C9.51933 9.84428 10.9727 8.39095 12.7597 8.39095C14.5467 8.39095 16 9.84463 16 11.6316C16 13.4186 14.5467 14.872 12.7597 14.872ZM12.7597 9.05795C11.3407 9.05795 10.186 10.2126 10.186 11.6316C10.186 13.051 11.3407 14.2056 12.7597 14.2056C14.1787 14.2056 15.3333 13.0506 15.3333 11.6316C15.3333 10.2126 14.1787 9.05795 12.7597 9.05795ZM3.242 14.872C1.45434 14.8716 0 13.418 0 11.6316C0 9.84463 1.45467 8.39062 3.24234 8.39062C5.02867 8.39062 6.48234 9.84428 6.48234 11.6316C6.48234 13.4183 5.02867 14.872 3.242 14.872ZM3.24233 9.05728C1.822 9.05728 0.666672 10.2123 0.666672 11.6316C0.666672 13.0506 1.822 14.2053 3.242 14.2056C4.661 14.2056 5.81567 13.051 5.81567 11.6316C5.81567 10.2123 4.66133 9.05728 3.24233 9.05728Z" fill="black"/>
  <path d="M7.74659 13.1694C7.6912 13.1694 7.63669 13.1556 7.58799 13.1292C7.53929 13.1028 7.49794 13.0647 7.46766 13.0183C7.43739 12.9719 7.41915 12.9187 7.4146 12.8635C7.41005 12.8083 7.41933 12.7528 7.44159 12.7021C7.49027 12.5895 8.56659 9.97879 5.10059 7.44512C5.04282 7.40293 5.00016 7.34327 4.97891 7.27496C4.95766 7.20665 4.95895 7.13331 4.98259 7.06579C5.02327 6.94979 6.00094 4.22512 8.08327 4.06645C8.1676 4.06001 8.25123 4.08587 8.31721 4.13879C8.38318 4.19171 8.42658 4.26773 8.43859 4.35145C8.44327 4.38212 8.56994 5.15012 9.31394 5.63679C10.0289 6.10412 11.0716 6.16079 12.4109 5.80545C12.4964 5.78273 12.5874 5.79488 12.6638 5.83924C12.7403 5.88359 12.7961 5.95651 12.8188 6.04196C12.8415 6.1274 12.8293 6.21837 12.785 6.29486C12.7406 6.37134 12.6677 6.42707 12.5823 6.44979C11.0429 6.85779 9.81694 6.76912 8.93627 6.18645C8.27627 5.74945 7.98494 5.14312 7.86159 4.77312C6.67261 5.05312 5.94327 6.50012 5.70127 7.06245C9.36527 9.88479 8.06494 12.9401 8.05127 12.9714C8.02505 13.0304 7.98232 13.0804 7.92825 13.1156C7.87417 13.1507 7.81108 13.1694 7.74659 13.1694ZM10.8473 2.71345C10.8472 3.04539 10.7153 3.3637 10.4806 3.59842C10.2458 3.83313 9.92753 3.96503 9.59559 3.96512C9.43104 3.96534 9.26805 3.93313 9.11594 3.87034C8.96383 3.80755 8.82558 3.7154 8.7091 3.59917C8.59262 3.48293 8.50018 3.34488 8.43706 3.1929C8.37395 3.04093 8.34139 2.87801 8.34127 2.71345C8.34127 2.38113 8.47328 2.06243 8.70826 1.82744C8.94324 1.59246 9.26195 1.46045 9.59427 1.46045C9.92658 1.46045 10.2453 1.59246 10.4803 1.82744C10.7153 2.06243 10.8473 2.38113 10.8473 2.71345Z" fill="black"/>
  <path d="M12.4949 9.07031C12.4165 9.07022 12.3407 9.04251 12.2807 8.99203C12.2207 8.94155 12.1804 8.87154 12.1669 8.79431L11.9496 7.54631C11.9356 7.45974 11.9562 7.37113 12.0071 7.29969C12.058 7.22824 12.1349 7.17972 12.2213 7.16464C12.3077 7.14955 12.3966 7.16912 12.4686 7.2191C12.5407 7.26909 12.5901 7.34545 12.6063 7.43165L12.8236 8.67965C12.832 8.72758 12.8298 8.77676 12.8171 8.82373C12.8044 8.87071 12.7816 8.91434 12.7503 8.95157C12.719 8.9888 12.6799 9.01872 12.6358 9.03924C12.5917 9.05975 12.5436 9.07035 12.4949 9.07031Z" fill="black"/>
</svg>