<svg xmlns="http://www.w3.org/2000/svg" width="16" height="16" viewBox="0 0 16 16" fill="none">
  <path d="M11.5646 15.9577C11.4857 15.9578 11.409 15.9325 11.3456 15.8857C11.2821 15.8388 11.2354 15.7729 11.2123 15.6975L9.13055 8.92321L6.64487 11.0295L6.675 14.6928C6.6758 14.7905 6.63782 14.8844 6.56939 14.9541L5.95401 15.5804C5.91085 15.6244 5.85735 15.6568 5.79841 15.6748C5.73947 15.6927 5.67697 15.6956 5.61664 15.6831C5.5563 15.6707 5.50006 15.6433 5.45305 15.6034C5.40605 15.5636 5.36979 15.5126 5.34758 15.4552L4.01569 12.0122L0.440955 10.4766C0.386048 10.453 0.33771 10.4164 0.300105 10.3699C0.262501 10.3234 0.236759 10.2685 0.225099 10.2099C0.213438 10.1513 0.216209 10.0907 0.233172 10.0334C0.250134 9.97606 0.280781 9.92373 0.322469 9.8809L0.935424 9.25236C0.971893 9.215 1.01587 9.18581 1.06446 9.1667C1.11304 9.1476 1.16513 9.13902 1.21727 9.14153L4.96675 9.32513L7.0786 6.73411L0.257068 4.5675C0.197073 4.54849 0.14295 4.51442 0.0998621 4.46855C0.0567741 4.42267 0.0261586 4.36653 0.0109364 4.30546C-0.00428585 4.24439 -0.00360696 4.18044 0.0129081 4.11972C0.0294232 4.05899 0.0612236 4.0035 0.105276 3.95855L1.27623 2.76259C1.31495 2.72314 1.36202 2.69288 1.41398 2.67404C1.46594 2.65519 1.52146 2.64825 1.57646 2.65371L9.9886 3.50066L12.3724 1.11134C13.3218 0.150766 14.232 0 14.69 0H14.6967C15.122 0 15.4978 0.125763 15.7033 0.331294C16.1993 0.82735 16.1748 2.24256 14.8383 3.60608C14.8373 3.60701 14.8364 3.60888 14.8355 3.60981L12.4307 6.01069L13.1036 14.3635C13.1078 14.4161 13.1007 14.469 13.0828 14.5186C13.0648 14.5682 13.0364 14.6134 12.9995 14.6511L11.8277 15.847C11.7934 15.882 11.7525 15.9099 11.7073 15.9289C11.6621 15.9479 11.6136 15.9577 11.5646 15.9577ZM9.31883 7.91235C9.39761 7.91238 9.47431 7.93767 9.53766 7.98451C9.60101 8.03134 9.64769 8.09724 9.67083 8.17255L11.7346 14.8889L12.3553 14.2556L11.6823 5.90032C11.678 5.84707 11.6853 5.79352 11.7038 5.74338C11.7222 5.69324 11.7514 5.64773 11.7892 5.60999L14.3134 3.09043C14.9328 2.45807 15.1508 1.90315 15.2247 1.549C15.3157 1.11237 15.2123 0.887899 15.1819 0.855618C15.0464 0.722018 14.0174 0.498015 12.8954 1.63389C12.8949 1.63442 12.8944 1.63491 12.8938 1.63539L10.3862 4.14524C10.3476 4.18389 10.3009 4.21348 10.2494 4.23184C10.198 4.2502 10.1431 4.25689 10.0887 4.25141L1.6789 3.40465L1.05074 4.04625L7.81806 6.19533C7.87535 6.21349 7.92731 6.24539 7.96944 6.28825C8.01156 6.3311 8.04256 6.38361 8.05973 6.4412C8.07689 6.49879 8.07971 6.5597 8.06793 6.61863C8.05616 6.67755 8.03014 6.7327 7.99216 6.77927L5.42035 9.93464C5.34637 10.0255 5.23376 10.0754 5.11668 10.0699L1.34714 9.88537L1.22464 10.011L4.44886 11.3959C4.49392 11.4153 4.53466 11.4435 4.5687 11.4788C4.60275 11.5141 4.6294 11.5558 4.64712 11.6016L5.8288 14.6564L5.93693 14.5463L5.90671 10.8629C5.90623 10.8089 5.91765 10.7555 5.94016 10.7064C5.96267 10.6573 5.99571 10.6137 6.03695 10.5788L9.08064 7.99958C9.14722 7.94326 9.23161 7.91235 9.31883 7.91235Z" fill="black"/>
</svg>