<svg xmlns="http://www.w3.org/2000/svg" width="16" height="16" viewBox="0 0 16 16" fill="none">
  <path d="M2.09375 5.7297C2.37969 5.7297 2.61094 5.49845 2.61094 5.21251V3.33751C2.61094 3.23751 2.69219 3.15626 2.79219 3.15626H3.87188C3.9375 3.15626 3.99844 3.1922 4.02969 3.25001L4.44844 4.00001C4.6625 4.38439 5.07031 4.62345 5.51094 4.62345H13.2078C13.3078 4.62345 13.3891 4.7047 13.3891 4.8047V5.21251C13.3891 5.49845 13.6203 5.7297 13.9063 5.7297C14.1922 5.7297 14.4234 5.49845 14.4234 5.21251V4.8047C14.4234 4.13439 13.8781 3.58907 13.2078 3.58907H5.51094C5.44531 3.58907 5.38438 3.55314 5.35313 3.49532L4.93438 2.74532C4.72031 2.36095 4.3125 2.12189 3.87188 2.12189H2.79219C2.12188 2.12189 1.57656 2.6672 1.57656 3.33751V5.21251C1.57656 5.49845 1.80781 5.7297 2.09375 5.7297ZM14.7063 6.35939C14.4797 6.09689 14.1516 5.94689 13.8047 5.94689H2.19375C1.84688 5.94689 1.51875 6.09689 1.29219 6.35939C1.06563 6.62189 0.965626 6.96876 1.01719 7.31095L1.85 12.8656C1.9375 13.4531 2.43281 13.8781 3.025 13.8781H12.9703C13.5547 13.8781 14.0594 13.4422 14.1453 12.8656L14.9781 7.31095C15.0328 6.96876 14.9328 6.62189 14.7063 6.35939ZM13.9578 7.15782L13.125 12.7125C13.1141 12.7875 13.0484 12.8438 12.9719 12.8438H3.02813C2.95156 12.8438 2.8875 12.7891 2.875 12.7125L2.04219 7.15782C2.03281 7.09689 2.06094 7.0547 2.07813 7.03439C2.09531 7.01408 2.13281 6.98126 2.19531 6.98126H13.8063C13.8672 6.98126 13.9063 7.01408 13.9234 7.03439C13.9391 7.0547 13.9672 7.09689 13.9578 7.15782Z" fill="#333333"/>
  <path d="M10.2529 8.2453H5.74668C5.46074 8.2453 5.22949 8.47655 5.22949 8.76249C5.22949 9.04842 5.46074 9.27968 5.74668 9.27968H10.2514C10.5373 9.27968 10.7686 9.04842 10.7686 8.76249C10.7686 8.47655 10.5389 8.2453 10.2529 8.2453Z" fill="#333333"/>
</svg>