<svg xmlns="http://www.w3.org/2000/svg" width="12" height="12" viewBox="0 0 12 12" fill="none">
  <path d="M5.45254 0C8.46394 0 10.9051 2.44113 10.9051 5.45254C10.9051 6.74671 10.4541 7.93568 9.70102 8.87063C9.76318 8.88258 9.82029 8.91299 9.86492 8.95787L11.9061 10.999C11.9662 11.0592 12 11.1408 12 11.2258C12 11.3109 11.9662 11.3924 11.9061 11.4526L11.4526 11.9061C11.3924 11.9662 11.3109 12 11.2258 12C11.1408 12 11.0592 11.9662 10.999 11.9061L8.95787 9.86492C8.91296 9.82022 8.88237 9.76317 8.86999 9.70102C7.90242 10.482 6.69599 10.9071 5.45254 10.9051C2.44113 10.9051 -1.50346e-08 8.46394 0 5.45254C1.50346e-08 2.44113 2.44113 0 5.45254 0ZM5.45254 1.28295C3.14964 1.28295 1.28295 3.14964 1.28295 5.45254C1.28295 7.75543 3.14964 9.62212 5.45254 9.62212C7.75543 9.62212 9.62212 7.75543 9.62212 5.45254C9.62212 3.14964 7.75543 1.28295 5.45254 1.28295Z" fill="#C3C3C4"/>
</svg>