<svg xmlns="http://www.w3.org/2000/svg" width="179" height="26" viewBox="0 0 179 26" fill="none">
  <path d="M33.1499 13.572C33.1499 12.2546 33.4012 11.0066 33.9039 9.82798C34.4066 8.64931 35.0999 7.60931 35.9839 6.70798C36.8852 5.78931 37.9252 5.06998 39.1039 4.54998C40.2826 4.02998 41.5479 3.76998 42.8999 3.76998C44.2346 3.76998 45.4912 4.02998 46.6699 4.54998C47.8486 5.06998 48.8886 5.78931 49.7899 6.70798C50.7086 7.60931 51.4192 8.64931 51.9219 9.82798C52.4419 11.0066 52.7019 12.2546 52.7019 13.572C52.7019 14.924 52.4419 16.1893 51.9219 17.368C51.4192 18.5466 50.7086 19.5866 49.7899 20.488C48.8886 21.372 47.8486 22.0653 46.6699 22.568C45.4912 23.0706 44.2346 23.322 42.8999 23.322C41.5479 23.322 40.2826 23.0706 39.1039 22.568C37.9252 22.0653 36.8852 21.372 35.9839 20.488C35.0999 19.5866 34.4066 18.5466 33.9039 17.368C33.4012 16.1893 33.1499 14.924 33.1499 13.572ZM37.0499 13.572C37.0499 14.4213 37.1972 15.2186 37.4919 15.964C37.8039 16.692 38.2286 17.342 38.7659 17.914C39.3206 18.4686 39.9532 18.902 40.6639 19.214C41.3919 19.526 42.1806 19.682 43.0299 19.682C43.8446 19.682 44.5986 19.526 45.2919 19.214C46.0026 18.902 46.6179 18.4686 47.1379 17.914C47.6579 17.342 48.0652 16.692 48.3599 15.964C48.6546 15.2186 48.8019 14.4213 48.8019 13.572C48.8019 12.7053 48.6459 11.8993 48.3339 11.154C48.0392 10.4086 47.6232 9.75864 47.0859 9.20398C46.5659 8.63198 45.9506 8.18998 45.2399 7.87798C44.5292 7.56598 43.7579 7.40998 42.9259 7.40998C42.0939 7.40998 41.3226 7.56598 40.6119 7.87798C39.9012 8.18998 39.2772 8.63198 38.7399 9.20398C38.2026 9.75864 37.7866 10.4086 37.4919 11.154C37.1972 11.8993 37.0499 12.7053 37.0499 13.572Z" fill="black"/>
  <path d="M59.1385 11.752L59.4765 14.872L59.3985 14.404C59.7279 13.728 60.1785 13.156 60.7505 12.688C61.3225 12.2026 61.8859 11.83 62.4405 11.57C63.0125 11.31 63.4459 11.18 63.7405 11.18L63.5585 14.82C62.7092 14.716 61.9812 14.8546 61.3745 15.236C60.7679 15.6173 60.2999 16.12 59.9705 16.744C59.6412 17.368 59.4765 18.0093 59.4765 18.668V23.114H55.8625V11.752H59.1385Z" fill="black"/>
  <path d="M70.6468 23.426C69.5894 23.426 68.6448 23.1833 67.8128 22.698C66.9808 22.1953 66.3221 21.476 65.8368 20.54C65.3688 19.604 65.1348 18.4946 65.1348 17.212C65.1348 15.9293 65.3948 14.8373 65.9148 13.936C66.4348 13.0346 67.1454 12.35 68.0468 11.882C68.9481 11.414 69.9708 11.18 71.1148 11.18C71.8428 11.18 72.5361 11.2926 73.1948 11.518C73.8708 11.7433 74.4341 12.09 74.8848 12.558V13.702V2.59998H78.4988V23.114H74.8588V20.904L75.1448 21.684C74.5554 22.1693 73.8968 22.5853 73.1688 22.932C72.4408 23.2613 71.6001 23.426 70.6468 23.426ZM71.8428 20.358C72.3281 20.358 72.7528 20.2973 73.1168 20.176C73.4981 20.0373 73.8274 19.8466 74.1048 19.604C74.3994 19.344 74.6508 19.0233 74.8588 18.642V15.86C74.7201 15.4786 74.5034 15.158 74.2088 14.898C73.9314 14.6206 73.5848 14.4126 73.1688 14.274C72.7701 14.118 72.3281 14.04 71.8428 14.04C71.3054 14.04 70.8028 14.1786 70.3348 14.456C69.8841 14.716 69.5201 15.08 69.2428 15.548C68.9654 16.016 68.8268 16.5533 68.8268 17.16C68.8268 17.7666 68.9654 18.3126 69.2428 18.798C69.5201 19.2833 69.8841 19.6646 70.3348 19.942C70.8028 20.2193 71.3054 20.358 71.8428 20.358Z" fill="black"/>
  <path d="M82.2434 11.752H85.8834V23.114H82.2434V11.752ZM82.1654 7.72198C82.1654 7.18464 82.3734 6.74264 82.7894 6.39598C83.2227 6.04931 83.6821 5.87598 84.1674 5.87598C84.6527 5.87598 85.0947 6.04931 85.4934 6.39598C85.9094 6.74264 86.1174 7.18464 86.1174 7.72198C86.1174 8.25931 85.9094 8.70131 85.4934 9.04798C85.0947 9.37731 84.6527 9.54198 84.1674 9.54198C83.6821 9.54198 83.2227 9.37731 82.7894 9.04798C82.3734 8.70131 82.1654 8.25931 82.1654 7.72198Z" fill="black"/>
  <path d="M92.9341 11.752L93.2201 13.78L93.1681 13.598C93.5667 12.8873 94.1301 12.3153 94.8581 11.882C95.5861 11.4313 96.4787 11.206 97.5361 11.206C98.6107 11.206 99.5034 11.5266 100.214 12.168C100.942 12.792 101.315 13.6066 101.332 14.612V23.114H97.6921V15.964C97.6747 15.4613 97.5361 15.0626 97.2761 14.768C97.0334 14.456 96.6174 14.3 96.0281 14.3C95.4734 14.3 94.9881 14.482 94.5721 14.846C94.1561 15.21 93.8354 15.704 93.6101 16.328C93.3847 16.952 93.2721 17.6713 93.2721 18.486V23.114H89.6321V11.752H92.9341Z" fill="black"/>
  <path d="M109.854 23.426C108.796 23.426 107.834 23.218 106.968 22.802C106.118 22.3686 105.442 21.71 104.94 20.826C104.437 19.942 104.186 18.8153 104.186 17.446C104.186 16.1633 104.446 15.054 104.966 14.118C105.486 13.182 106.17 12.4626 107.02 11.96C107.869 11.44 108.77 11.18 109.724 11.18C110.85 11.18 111.7 11.3706 112.272 11.752C112.861 12.116 113.346 12.5233 113.728 12.974L113.572 13.416L113.91 11.752H117.29V23.114H113.65V20.644L113.936 21.424C113.901 21.424 113.797 21.528 113.624 21.736C113.45 21.9266 113.19 22.1606 112.844 22.438C112.514 22.698 112.098 22.9233 111.596 23.114C111.11 23.322 110.53 23.426 109.854 23.426ZM110.894 20.462C111.327 20.462 111.717 20.4013 112.064 20.28C112.41 20.1413 112.714 19.9506 112.974 19.708C113.234 19.448 113.459 19.1273 113.65 18.746V15.964C113.511 15.5826 113.303 15.262 113.026 15.002C112.748 14.7246 112.419 14.5166 112.038 14.378C111.656 14.222 111.232 14.144 110.764 14.144C110.244 14.144 109.758 14.2826 109.308 14.56C108.874 14.82 108.528 15.184 108.268 15.652C108.008 16.12 107.878 16.6573 107.878 17.264C107.878 17.8706 108.016 18.4166 108.294 18.902C108.571 19.3873 108.935 19.7686 109.386 20.046C109.854 20.3233 110.356 20.462 110.894 20.462Z" fill="black"/>
  <path d="M121.04 2.59998H124.68V23.114H121.04V2.59998Z" fill="black"/>
  <path d="M138.725 6.73397C138.188 6.47398 137.529 6.23131 136.749 6.00598C135.969 5.78064 135.189 5.66798 134.409 5.66798C133.196 5.66798 132.225 5.97131 131.497 6.57798C130.769 7.18464 130.405 7.94731 130.405 8.86597C130.405 9.55931 130.613 10.14 131.029 10.608C131.445 11.0586 131.991 11.4486 132.667 11.778C133.343 12.09 134.062 12.3933 134.825 12.688C135.432 12.9133 136.03 13.1646 136.619 13.442C137.226 13.7193 137.772 14.0573 138.257 14.456C138.742 14.8546 139.124 15.3486 139.401 15.938C139.696 16.5273 139.843 17.2553 139.843 18.122C139.843 19.1446 139.6 20.0546 139.115 20.852C138.63 21.632 137.954 22.2386 137.087 22.672C136.22 23.1053 135.215 23.322 134.071 23.322C133.152 23.322 132.312 23.2093 131.549 22.984C130.804 22.7586 130.145 22.4986 129.573 22.204C129.018 21.892 128.576 21.632 128.247 21.424L128.845 20.384C129.226 20.6613 129.686 20.9386 130.223 21.216C130.778 21.4933 131.376 21.7273 132.017 21.918C132.658 22.1086 133.3 22.204 133.941 22.204C134.686 22.204 135.406 22.0566 136.099 21.762C136.81 21.4673 137.39 21.0253 137.841 20.436C138.309 19.8293 138.543 19.0666 138.543 18.148C138.543 17.264 138.326 16.5533 137.893 16.016C137.46 15.4613 136.905 15.0106 136.229 14.664C135.553 14.3173 134.834 14.0053 134.071 13.728C133.482 13.5026 132.892 13.2686 132.303 13.026C131.714 12.766 131.176 12.4626 130.691 12.116C130.206 11.752 129.816 11.3186 129.521 10.816C129.244 10.3133 129.105 9.70664 129.105 8.99598C129.105 8.11198 129.33 7.34064 129.781 6.68198C130.232 6.02331 130.838 5.51198 131.601 5.14798C132.381 4.76664 133.265 4.56731 134.253 4.54998C135.12 4.54998 135.995 4.66264 136.879 4.88798C137.78 5.11331 138.56 5.39931 139.219 5.74598L138.725 6.73397Z" fill="black"/>
  <path d="M151.83 22.126C151.362 22.5073 150.834 22.802 150.244 23.01C149.655 23.218 149.04 23.322 148.398 23.322C147.358 23.322 146.431 23.0966 145.616 22.646C144.802 22.178 144.16 21.5453 143.692 20.748C143.224 19.9506 142.99 19.0406 142.99 18.018C142.99 16.9953 143.233 16.0853 143.718 15.288C144.204 14.4906 144.845 13.8666 145.642 13.416C146.457 12.948 147.341 12.714 148.294 12.714C149.005 12.714 149.664 12.818 150.27 13.026C150.877 13.234 151.406 13.5286 151.856 13.91L151.206 14.742C150.842 14.4473 150.418 14.2046 149.932 14.014C149.447 13.8233 148.927 13.728 148.372 13.728C147.61 13.728 146.908 13.9186 146.266 14.3C145.642 14.6813 145.14 15.2013 144.758 15.86C144.394 16.5013 144.212 17.2206 144.212 18.018C144.212 18.798 144.394 19.5173 144.758 20.176C145.14 20.8173 145.651 21.3286 146.292 21.71C146.951 22.0913 147.679 22.282 148.476 22.282C148.996 22.282 149.482 22.204 149.932 22.048C150.383 21.8746 150.79 21.6493 151.154 21.372L151.83 22.126Z" fill="black"/>
  <path d="M159.438 23.322C158.468 23.322 157.584 23.1053 156.786 22.672C156.006 22.2213 155.382 21.5973 154.914 20.8C154.464 20.0026 154.238 19.0753 154.238 18.018C154.238 16.8913 154.481 15.9293 154.966 15.132C155.452 14.3173 156.11 13.702 156.942 13.286C157.774 12.8526 158.719 12.636 159.776 12.636C160.678 12.636 161.527 12.9046 162.324 13.442C163.139 13.9793 163.72 14.6553 164.066 15.47L163.884 15.834L164.04 12.948H165.132V23.114H163.91V19.968L164.17 20.436C164.049 20.7826 163.841 21.1293 163.546 21.476C163.252 21.8053 162.888 22.1173 162.454 22.412C162.038 22.6893 161.57 22.9146 161.05 23.088C160.548 23.244 160.01 23.322 159.438 23.322ZM159.698 22.282C160.461 22.282 161.146 22.126 161.752 21.814C162.376 21.4846 162.879 21.034 163.26 20.462C163.642 19.89 163.858 19.2313 163.91 18.486V17.03C163.772 16.3886 163.494 15.8166 163.078 15.314C162.68 14.8113 162.186 14.4126 161.596 14.118C161.007 13.8233 160.366 13.676 159.672 13.676C158.91 13.676 158.208 13.858 157.566 14.222C156.925 14.5686 156.414 15.0626 156.032 15.704C155.651 16.3453 155.46 17.0993 155.46 17.966C155.46 18.7633 155.651 19.4913 156.032 20.15C156.414 20.7913 156.925 21.3113 157.566 21.71C158.225 22.0913 158.936 22.282 159.698 22.282Z" fill="black"/>
  <path d="M170.816 12.948L170.946 16.146L170.79 15.522C171.085 14.638 171.639 13.9446 172.454 13.442C173.286 12.922 174.204 12.662 175.21 12.662C176.163 12.662 176.935 12.948 177.524 13.52C178.113 14.0746 178.417 14.8026 178.434 15.704V23.114H177.186V16.042C177.169 15.3833 176.96 14.8373 176.562 14.404C176.163 13.9706 175.583 13.7453 174.82 13.728C174.144 13.728 173.511 13.8926 172.922 14.222C172.333 14.5513 171.856 15.0106 171.492 15.6C171.145 16.1893 170.972 16.874 170.972 17.654V23.114H169.75V12.948H170.816Z" fill="black"/>
  <path fill-rule="evenodd" clip-rule="evenodd" d="M16.1539 0.388768L16.3033 0.427124C19.7358 1.33233 22.5401 3.57902 24.3208 6.62595C25.9131 9.41437 26.3879 12.8467 25.6105 15.9607L25.5687 16.136C25.4331 16.7037 25.2834 17.2554 25.0431 17.7889L24.9549 17.9975C23.4921 21.41 20.7932 23.8015 17.4029 25.2084C16.8227 25.4223 16.2173 25.5601 15.6148 25.6973L15.6147 25.6973L15.4604 25.7325L15.3165 25.7676C13.7804 26.1371 11.8361 26.0314 10.3105 25.6931L10.0792 25.6423C9.41419 25.491 8.77874 25.2959 8.14726 25.039L7.98983 24.9753C4.87479 23.6918 2.32703 21.1448 1.02328 18.0411C0.452573 16.6486 0.0577965 15.2011 0.014571 13.6911L0.00835276 13.5124C-0.050651 11.6067 0.194186 9.6295 1.02328 7.89102L1.16069 7.5854C1.47945 6.88493 1.83108 6.24303 2.28416 5.62143L2.37432 5.49565C2.79279 4.9133 3.23574 4.37203 3.73417 3.85619L3.8578 3.72715C5.08855 2.46855 6.71438 1.37647 8.39451 0.832294C8.49059 0.801707 8.5402 0.785916 8.58859 0.767026C8.64024 0.746864 8.69052 0.723171 8.79445 0.674191C9.06557 0.555678 9.34718 0.491572 9.63454 0.42616L9.66032 0.42029L9.83686 0.379349C11.9433 -0.104814 14.0522 -0.150897 16.1539 0.388768ZM19.8107 19.4281H18.2346L18.2346 7.82795L6.63447 7.82794V6.25184L19.8107 6.25184L19.8107 19.4281ZM13.3798 19.7433H14.9559L14.9559 10.9802L6.19278 10.9802V12.5563H13.3798L13.3798 19.7433Z" fill="#FFA901"/>
</svg>