<svg width="20" height="20" viewBox="0 0 20 20" fill="none" xmlns="http://www.w3.org/2000/svg">
<path d="M19.3106 9.99989C19.3106 15.142 15.1423 19.3102 10.0002 19.3102C4.85815 19.3102 0.689871 15.142 0.689871 9.99989C0.689871 4.85782 4.85815 0.689547 10.0002 0.689547C15.1423 0.689547 19.3106 4.85782 19.3106 9.99989Z" fill="#B5BECC"/>
<path d="M20 10C20 15.5228 15.5228 20 10 20C4.47724 20 0 15.5228 0 10C0 4.47724 4.47724 3.23279e-08 10 0C15.5228 -3.23273e-08 20 4.47724 20 10ZM10 19.3103C15.1421 19.3103 19.3103 15.1421 19.3103 10C19.3103 4.85793 15.1421 0.689655 10 0.689655C4.85793 0.689655 0.689655 4.85793 0.689655 10C0.689655 15.1421 4.85793 19.3103 10 19.3103Z" fill="#7D838E"/>
<path d="M1.37931 10.3448C1.28786 10.3448 1.20015 10.3085 1.13548 10.2438C1.07081 10.1792 1.03448 10.0915 1.03448 10C1.03448 5.04828 5.04828 1.03448 10 1.03448C10.0453 1.03448 10.0901 1.0434 10.132 1.06073C10.1738 1.07806 10.2118 1.10346 10.2438 1.13548C10.2759 1.1675 10.3013 1.20551 10.3186 1.24735C10.3359 1.28919 10.3448 1.33403 10.3448 1.37931C10.3448 1.42459 10.3359 1.46943 10.3186 1.51127C10.3013 1.55311 10.2759 1.59112 10.2438 1.62314C10.2118 1.65516 10.1738 1.68056 10.132 1.69789C10.0901 1.71522 10.0453 1.72414 10 1.72414C5.42931 1.72414 1.72414 5.42931 1.72414 10C1.72414 10.0915 1.68781 10.1792 1.62314 10.2438C1.55847 10.3085 1.47076 10.3448 1.37931 10.3448Z" fill="#C6CEDC"/>
<path d="M18.6212 9.65512C18.7127 9.65512 18.8004 9.69145 18.8651 9.75612C18.9297 9.82078 18.9661 9.90849 18.9661 9.99995C18.9661 14.9517 14.9523 18.9655 10.0005 18.9655C9.95525 18.9655 9.91039 18.9566 9.86855 18.9392C9.8267 18.9219 9.78867 18.8965 9.75664 18.8645C9.72461 18.8325 9.6992 18.7945 9.68186 18.7526C9.66453 18.7108 9.6556 18.6659 9.6556 18.6206C9.6556 18.5753 9.66453 18.5305 9.68186 18.4887C9.6992 18.4468 9.72461 18.4088 9.75664 18.3768C9.78867 18.3447 9.8267 18.3193 9.86855 18.302C9.91039 18.2847 9.95525 18.2758 10.0005 18.2758C14.5712 18.2758 18.2764 14.5706 18.2764 9.99995C18.2764 9.90849 18.3127 9.82078 18.3774 9.75612C18.4421 9.69145 18.5298 9.65512 18.6212 9.65512Z" fill="#C6CEDC"/>
<path d="M16.8966 10C16.8966 13.809 13.809 16.8966 10 16.8966C6.19104 16.8966 3.10345 13.809 3.10345 10C3.10345 6.19104 6.19104 3.10345 10 3.10345C13.809 3.10345 16.8966 6.19104 16.8966 10Z" fill="#B4CAEB"/>
<path d="M17.5866 9.99995C17.5866 14.1896 14.1901 17.5862 10.0004 17.5862C5.81078 17.5862 2.41422 14.1896 2.41422 9.99995C2.41422 5.81029 5.81078 2.41374 10.0004 2.41374C14.1901 2.41374 17.5866 5.81029 17.5866 9.99995ZM10.0004 16.8965C13.8094 16.8965 16.897 13.8089 16.897 9.99995C16.897 6.19098 13.8094 3.10339 10.0004 3.10339C6.19147 3.10339 3.10388 6.19098 3.10388 9.99995C3.10388 13.8089 6.19147 16.8965 10.0004 16.8965Z" fill="#7D838E"/>
<path d="M10.0005 15.862C13.2381 15.862 15.8626 13.2375 15.8626 9.99995C15.8626 9.90849 15.8989 9.82078 15.9636 9.75612C16.0283 9.69145 16.116 9.65512 16.2074 9.65512C16.2989 9.65512 16.3866 9.69145 16.4513 9.75612C16.5159 9.82078 16.5523 9.90849 16.5523 9.99995C16.5523 13.6182 13.6188 16.5517 10.0005 16.5517C9.95525 16.5517 9.91039 16.5428 9.86855 16.5255C9.8267 16.5081 9.78867 16.4827 9.75664 16.4507C9.72461 16.4187 9.6992 16.3807 9.68186 16.3388C9.66453 16.297 9.6556 16.2521 9.6556 16.2068C9.6556 16.1616 9.66453 16.1167 9.68186 16.0749C9.6992 16.033 9.72461 15.995 9.75664 15.963C9.78867 15.931 9.8267 15.9056 9.86855 15.8882C9.91039 15.8709 9.95525 15.862 10.0005 15.862Z" fill="#CDE0FD"/>
<path d="M10.0004 4.13788C6.76285 4.13788 4.13836 6.76236 4.13836 9.99995C4.13836 10.0452 4.12944 10.0901 4.11211 10.1319C4.09478 10.1737 4.06939 10.2118 4.03736 10.2438C4.00534 10.2758 3.96733 10.3012 3.92549 10.3185C3.88366 10.3359 3.83882 10.3448 3.79353 10.3448C3.74825 10.3448 3.70341 10.3359 3.66157 10.3185C3.61974 10.3012 3.58172 10.2758 3.5497 10.2438C3.51768 10.2118 3.49228 10.1737 3.47496 10.1319C3.45763 10.0901 3.44871 10.0452 3.44871 9.99995C3.44871 6.38167 6.38216 3.44822 10.0004 3.44822C10.0457 3.44821 10.0906 3.45712 10.1324 3.47444C10.1743 3.49176 10.2123 3.51716 10.2443 3.54918C10.2764 3.5812 10.3018 3.61922 10.3191 3.66107C10.3364 3.70291 10.3454 3.74776 10.3454 3.79305C10.3454 3.83834 10.3364 3.88319 10.3191 3.92503C10.3018 3.96688 10.2764 4.0049 10.2443 4.03692C10.2123 4.06894 10.1743 4.09434 10.1324 4.11166C10.0906 4.12898 10.0457 4.13789 10.0004 4.13788Z" fill="#D3D6D9"/>
<path d="M7.29019 12.0986L9.86572 10.319C10.2521 10.0522 10.5684 9.8199 10.8146 9.62216C11.0608 9.42442 11.254 9.24865 11.3942 9.09485C11.5344 8.93791 11.631 8.79667 11.684 8.67112C11.737 8.54557 11.7635 8.42002 11.7635 8.29447C11.7635 8.15008 11.7339 8.01512 11.6747 7.88957C11.6155 7.76402 11.522 7.65416 11.3942 7.56C11.2696 7.46583 11.1075 7.39207 10.9081 7.33872C10.7118 7.28536 10.4765 7.25868 10.2023 7.25868C9.80339 7.25868 9.40608 7.31517 9.01032 7.42817C8.61457 7.54116 8.21102 7.72164 7.79969 7.96961L7.11724 6.83965C7.57532 6.55403 8.07079 6.33117 8.60366 6.1711C9.13964 6.01102 9.70212 5.93098 10.2911 5.93098C10.8052 5.93098 11.2509 5.99376 11.6279 6.11931C12.0081 6.24172 12.3213 6.40964 12.5674 6.62308C12.8167 6.83651 13.0022 7.08448 13.1237 7.36696C13.2452 7.64945 13.306 7.9492 13.306 8.26622C13.306 8.51104 13.2655 8.74488 13.1845 8.96773C13.1034 9.19058 12.9616 9.42128 12.7591 9.65983C12.5565 9.89837 12.2823 10.1558 11.9364 10.432C11.5936 10.705 11.1605 11.0158 10.637 11.3642L9.57124 12.0704H13.5724V13.3793H7.29019V12.0986Z" fill="#CDE0FD"/>
<path d="M6.4626 12.0986L9.03813 10.319C9.42454 10.0522 9.74083 9.8199 9.98701 9.62216C10.2332 9.42442 10.4264 9.24865 10.5666 9.09485C10.7068 8.93791 10.8034 8.79667 10.8564 8.67112C10.9094 8.54557 10.9359 8.42002 10.9359 8.29447C10.9359 8.15008 10.9063 8.01512 10.8471 7.88957C10.7879 7.76402 10.6944 7.65416 10.5666 7.56C10.442 7.46583 10.2799 7.39207 10.0805 7.33872C9.88417 7.28536 9.6489 7.25868 9.37468 7.25868C8.97581 7.25868 8.57849 7.31517 8.18274 7.42817C7.78698 7.54116 7.38344 7.72164 6.9721 7.96961L6.28966 6.83965C6.74773 6.55403 7.24321 6.33117 7.77607 6.1711C8.31206 6.01102 8.87453 5.93098 9.46349 5.93098C9.97766 5.93098 10.4233 5.99376 10.8003 6.11931C11.1805 6.24172 11.4937 6.40964 11.7399 6.62308C11.9892 6.83651 12.1746 7.08448 12.2961 7.36696C12.4176 7.64945 12.4784 7.9492 12.4784 8.26622C12.4784 8.51104 12.4379 8.74488 12.3569 8.96773C12.2758 9.19058 12.1341 9.42128 11.9315 9.65983C11.729 9.89837 11.4547 10.1558 11.1088 10.432C10.7661 10.705 10.3329 11.0158 9.80938 11.3642L8.74365 12.0704H12.7448V13.3793H6.4626V12.0986Z" fill="#7D838E"/>
</svg>
