<svg width="20" height="20" viewBox="0 0 20 20" fill="none" xmlns="http://www.w3.org/2000/svg">
<path d="M19.3106 9.99989C19.3106 15.142 15.1423 19.3102 10.0002 19.3102C4.85815 19.3102 0.689871 15.142 0.689871 9.99989C0.689871 4.85782 4.85815 0.689547 10.0002 0.689547C15.1423 0.689547 19.3106 4.85782 19.3106 9.99989Z" fill="#CBAF4E"/>
<path d="M20 10C20 15.5228 15.5228 20 10 20C4.47724 20 0 15.5228 0 10C0 4.47724 4.47724 3.23276e-08 10 0C15.5228 -3.23276e-08 20 4.47724 20 10ZM10 19.3103C15.1421 19.3103 19.3103 15.1421 19.3103 10C19.3103 4.85793 15.1421 0.689655 10 0.689655C4.85793 0.689655 0.689655 4.85793 0.689655 10C0.689655 15.1421 4.85793 19.3103 10 19.3103Z" fill="#C18846"/>
<path d="M1.37931 10.3448C1.28786 10.3448 1.20015 10.3085 1.13548 10.2438C1.07081 10.1792 1.03448 10.0915 1.03448 10C1.03448 5.04828 5.04828 1.03448 10 1.03448C10.0453 1.03448 10.0901 1.0434 10.132 1.06073C10.1738 1.07806 10.2118 1.10346 10.2438 1.13548C10.2759 1.1675 10.3013 1.20551 10.3186 1.24735C10.3359 1.28919 10.3448 1.33403 10.3448 1.37931C10.3448 1.42459 10.3359 1.46943 10.3186 1.51127C10.3013 1.55311 10.2759 1.59112 10.2438 1.62314C10.2118 1.65516 10.1738 1.68056 10.132 1.69789C10.0901 1.71522 10.0453 1.72414 10 1.72414C5.42931 1.72414 1.72414 5.42931 1.72414 10C1.72414 10.0915 1.68781 10.1792 1.62314 10.2438C1.55847 10.3085 1.47076 10.3448 1.37931 10.3448Z" fill="#E6C967"/>
<path d="M18.6212 9.65512C18.7127 9.65512 18.8004 9.69145 18.8651 9.75612C18.9297 9.82078 18.9661 9.90849 18.9661 9.99995C18.9661 14.9517 14.9523 18.9655 10.0005 18.9655C9.95525 18.9655 9.91039 18.9566 9.86855 18.9392C9.8267 18.9219 9.78867 18.8965 9.75664 18.8645C9.72461 18.8325 9.6992 18.7945 9.68186 18.7526C9.66453 18.7108 9.6556 18.6659 9.6556 18.6206C9.6556 18.5753 9.66453 18.5305 9.68186 18.4887C9.6992 18.4468 9.72461 18.4088 9.75664 18.3768C9.78867 18.3447 9.8267 18.3193 9.86855 18.302C9.91039 18.2847 9.95525 18.2758 10.0005 18.2758C14.5712 18.2758 18.2764 14.5706 18.2764 9.99995C18.2764 9.90849 18.3127 9.82078 18.3774 9.75612C18.4421 9.69145 18.5298 9.65512 18.6212 9.65512Z" fill="#DCBE56"/>
<path d="M16.8966 10C16.8966 13.809 13.809 16.8966 10 16.8966C6.19104 16.8966 3.10345 13.809 3.10345 10C3.10345 6.19104 6.19104 3.10345 10 3.10345C13.809 3.10345 16.8966 6.19104 16.8966 10Z" fill="#F5D581"/>
<path d="M17.5866 9.99995C17.5866 14.1896 14.1901 17.5862 10.0004 17.5862C5.81078 17.5862 2.41422 14.1896 2.41422 9.99995C2.41422 5.81029 5.81078 2.41374 10.0004 2.41374C14.1901 2.41374 17.5866 5.81029 17.5866 9.99995ZM10.0004 16.8965C13.8094 16.8965 16.897 13.8089 16.897 9.99995C16.897 6.19098 13.8094 3.10339 10.0004 3.10339C6.19147 3.10339 3.10388 6.19098 3.10388 9.99995C3.10388 13.8089 6.19147 16.8965 10.0004 16.8965Z" fill="#C18846"/>
<path d="M10.0005 15.862C13.2381 15.862 15.8626 13.2375 15.8626 9.99995C15.8626 9.90849 15.8989 9.82078 15.9636 9.75612C16.0283 9.69145 16.116 9.65512 16.2074 9.65512C16.2989 9.65512 16.3866 9.69145 16.4513 9.75612C16.5159 9.82078 16.5523 9.90849 16.5523 9.99995C16.5523 13.6182 13.6188 16.5517 10.0005 16.5517C9.95525 16.5517 9.91039 16.5428 9.86855 16.5255C9.8267 16.5081 9.78867 16.4827 9.75664 16.4507C9.72461 16.4187 9.6992 16.3807 9.68186 16.3388C9.66453 16.297 9.6556 16.2521 9.6556 16.2068C9.6556 16.1616 9.66453 16.1167 9.68186 16.0749C9.6992 16.033 9.72461 15.995 9.75664 15.963C9.78867 15.931 9.8267 15.9056 9.86855 15.8882C9.91039 15.8709 9.95525 15.862 10.0005 15.862Z" fill="#FCE5A9"/>
<path d="M10.0004 4.13788C6.76285 4.13788 4.13836 6.76236 4.13836 9.99995C4.13836 10.0452 4.12944 10.0901 4.11211 10.1319C4.09478 10.1737 4.06939 10.2118 4.03736 10.2438C4.00534 10.2758 3.96733 10.3012 3.92549 10.3185C3.88366 10.3359 3.83882 10.3448 3.79353 10.3448C3.74825 10.3448 3.70341 10.3359 3.66157 10.3185C3.61974 10.3012 3.58172 10.2758 3.5497 10.2438C3.51768 10.2118 3.49228 10.1737 3.47496 10.1319C3.45763 10.0901 3.44871 10.0452 3.44871 9.99995C3.44871 6.38167 6.38216 3.44822 10.0004 3.44822C10.0457 3.44821 10.0906 3.45712 10.1324 3.47444C10.1743 3.49176 10.2123 3.51716 10.2443 3.54918C10.2764 3.5812 10.3018 3.61922 10.3191 3.66107C10.3364 3.70291 10.3454 3.74776 10.3454 3.79305C10.3454 3.83834 10.3364 3.88319 10.3191 3.92503C10.3018 3.96688 10.2764 4.0049 10.2443 4.03692C10.2123 4.06894 10.1743 4.09434 10.1324 4.11166C10.0906 4.12898 10.0457 4.13789 10.0004 4.13788Z" fill="#FFF3D4"/>
<path d="M7.61636 11.5724C7.97448 11.7501 8.35687 11.8804 8.76354 11.9632C9.17325 12.0429 9.57234 12.0827 9.9608 12.0827C10.3068 12.0827 10.6057 12.0551 10.8576 11.9999C11.1095 11.9417 11.3174 11.8635 11.4813 11.7655C11.6452 11.6674 11.7665 11.5509 11.8455 11.416C11.9244 11.2812 11.9638 11.1356 11.9638 10.9793C11.9638 10.7678 11.8925 10.5793 11.7499 10.4137C11.6072 10.2452 11.3902 10.1195 11.0989 10.0367C10.8106 9.9509 10.4449 9.91719 10.0018 9.93558C9.56172 9.95397 9.04275 10.0413 8.44488 10.1976L8.44943 9.12179L11.108 7.37466H7.34322V6.0965H13.0382V7.34707L10.6983 8.84592C11.1262 8.84592 11.5086 8.9011 11.8455 9.01144C12.1823 9.12179 12.4661 9.27351 12.6967 9.46661C12.9274 9.65972 13.1034 9.88807 13.2248 10.1517C13.3462 10.4153 13.4069 10.6988 13.4069 11.0022C13.4069 11.3609 13.328 11.6873 13.1702 11.9816C13.0154 12.2727 12.7893 12.5226 12.4919 12.731C12.1945 12.9363 11.8303 13.0957 11.3993 13.2091C10.9714 13.3226 10.4858 13.3793 9.94259 13.3793C9.36597 13.3793 8.83335 13.318 8.34473 13.1954C7.85612 13.0697 7.39178 12.8965 6.95172 12.6758L7.61636 11.5724Z" fill="#FFF3D4"/>
<path d="M7.11981 11.5724C7.47792 11.7501 7.86032 11.8804 8.26699 11.9632C8.6767 12.0429 9.07579 12.0827 9.46425 12.0827C9.81022 12.0827 10.1092 12.0551 10.3611 11.9999C10.6129 11.9417 10.8208 11.8635 10.9847 11.7655C11.1486 11.6674 11.27 11.5509 11.3489 11.416C11.4278 11.2812 11.4673 11.1356 11.4673 10.9793C11.4673 10.7678 11.3959 10.5793 11.2533 10.4137C11.1107 10.2452 10.8937 10.1195 10.6023 10.0367C10.314 9.9509 9.94831 9.91719 9.50522 9.93558C9.06516 9.95397 8.5462 10.0413 7.94833 10.1976L7.95288 9.12179L10.6114 7.37466H6.84667V6.0965H12.5416V7.34707L10.2017 8.84592C10.6296 8.84592 11.012 8.9011 11.3489 9.01144C11.6858 9.12179 11.9695 9.27351 12.2002 9.46661C12.4308 9.65972 12.6069 9.88807 12.7283 10.1517C12.8496 10.4153 12.9103 10.6988 12.9103 11.0022C12.9103 11.3609 12.8314 11.6873 12.6736 11.9816C12.5188 12.2727 12.2928 12.5226 11.9953 12.731C11.6979 12.9363 11.3337 13.0957 10.9028 13.2091C10.4749 13.3226 9.98928 13.3793 9.44604 13.3793C8.86941 13.3793 8.33679 13.318 7.84818 13.1954C7.35957 13.0697 6.89523 12.8965 6.45517 12.6758L7.11981 11.5724Z" fill="#C18846"/>
</svg>
