<svg width="121" height="121" viewBox="0 0 121 121" fill="none" xmlns="http://www.w3.org/2000/svg">
<path d="M116.668 60.416C116.668 91.4827 91.4846 116.666 60.418 116.666C29.3513 116.666 4.16797 91.4827 4.16797 60.416C4.16797 29.3494 29.3513 4.16602 60.418 4.16602C91.4846 4.16602 116.668 29.3494 116.668 60.416Z" fill="#FFBB0D"/>
<path d="M120.833 60.4167C120.833 93.7833 93.7833 120.833 60.4167 120.833C27.05 120.833 0 93.7833 0 60.4167C0 27.05 27.05 1.95312e-07 60.4167 0C93.7833 -1.95312e-07 120.833 27.05 120.833 60.4167ZM60.4167 116.667C91.4833 116.667 116.667 91.4833 116.667 60.4167C116.667 29.35 91.4833 4.16666 60.4167 4.16666C29.35 4.16666 4.16667 29.35 4.16667 60.4167C4.16667 91.4833 29.35 116.667 60.4167 116.667Z" fill="#E89B05"/>
<path d="M8.33333 62.5C7.7808 62.5 7.25089 62.2805 6.86019 61.8898C6.46949 61.4991 6.25 60.9692 6.25 60.4167C6.25 30.5 30.5 6.25 60.4167 6.25C60.6903 6.25 60.9612 6.30389 61.2139 6.40858C61.4667 6.51328 61.6964 6.66674 61.8898 6.86019C62.0833 7.05365 62.2367 7.28331 62.3414 7.53607C62.4461 7.78883 62.5 8.05974 62.5 8.33333C62.5 8.60692 62.4461 8.87783 62.3414 9.13059C62.2367 9.38335 62.0833 9.61302 61.8898 9.80647C61.6964 9.99993 61.4667 10.1534 61.2139 10.2581C60.9612 10.3628 60.6903 10.4167 60.4167 10.4167C32.8021 10.4167 10.4167 32.8021 10.4167 60.4167C10.4167 60.9692 10.1972 61.4991 9.80647 61.8898C9.41577 62.2805 8.88587 62.5 8.33333 62.5Z" fill="#FFD15C"/>
<path d="M112.503 58.333C113.056 58.333 113.586 58.5525 113.976 58.9432C114.367 59.3339 114.587 59.8638 114.587 60.4163C114.587 90.333 90.3366 114.583 60.4199 114.583C60.1463 114.583 59.8753 114.529 59.6225 114.425C59.3696 114.32 59.1399 114.167 58.9464 113.973C58.7528 113.78 58.5993 113.55 58.4946 113.297C58.3898 113.044 58.3359 112.773 58.3359 112.5C58.3359 112.226 58.3898 111.955 58.4946 111.702C58.5993 111.449 58.7528 111.22 58.9464 111.026C59.1399 110.833 59.3696 110.679 59.6225 110.575C59.8753 110.47 60.1463 110.416 60.4199 110.416C88.0345 110.416 110.42 88.0309 110.42 60.4163C110.42 59.8638 110.639 59.3339 111.03 58.9432C111.421 58.5525 111.951 58.333 112.503 58.333Z" fill="#EEAD04"/>
<path d="M102.083 60.4167C102.083 83.4292 83.4292 102.083 60.4167 102.083C37.4042 102.083 18.75 83.4292 18.75 60.4167C18.75 37.4042 37.4042 18.75 60.4167 18.75C83.4292 18.75 102.083 37.4042 102.083 60.4167Z" fill="#FFDD28"/>
<path d="M106.253 60.4163C106.253 85.7288 85.7318 106.25 60.4193 106.25C35.1068 106.25 14.5859 85.7288 14.5859 60.4163C14.5859 35.1038 35.1068 14.583 60.4193 14.583C85.7318 14.583 106.253 35.1038 106.253 60.4163ZM60.4193 102.083C83.4318 102.083 102.086 83.4288 102.086 60.4163C102.086 37.4038 83.4318 18.7497 60.4193 18.7497C37.4068 18.7497 18.7526 37.4038 18.7526 60.4163C18.7526 83.4288 37.4068 102.083 60.4193 102.083Z" fill="#E89B05"/>
<path d="M60.4199 95.833C79.9803 95.833 95.8366 79.9768 95.8366 60.4163C95.8366 59.8638 96.0561 59.3339 96.4468 58.9432C96.8375 58.5525 97.3674 58.333 97.9199 58.333C98.4724 58.333 99.0023 58.5525 99.3931 58.9432C99.7838 59.3339 100.003 59.8638 100.003 60.4163C100.003 82.2768 82.2803 99.9997 60.4199 99.9997C60.1463 99.9998 59.8753 99.9459 59.6225 99.8413C59.3696 99.7366 59.1399 99.5832 58.9464 99.3897C58.7528 99.1962 58.5993 98.9665 58.4946 98.7137C58.3898 98.4609 58.3359 98.19 58.3359 97.9163C58.3359 97.6427 58.3898 97.3717 58.4946 97.1189C58.5993 96.8661 58.7528 96.6364 58.9464 96.443C59.1399 96.2495 59.3696 96.0961 59.6225 95.9914C59.8753 95.8867 60.1463 95.8329 60.4199 95.833Z" fill="#ECC704"/>
<path d="M60.4193 24.9997C40.8589 24.9997 25.0026 40.8559 25.0026 60.4163C25.0026 60.6899 24.9487 60.9608 24.844 61.2136C24.7393 61.4664 24.5859 61.696 24.3924 61.8895C24.199 62.0829 23.9693 62.2364 23.7165 62.3411C23.4638 62.4458 23.1929 62.4997 22.9193 62.4997C22.6457 62.4997 22.3748 62.4458 22.122 62.3411C21.8692 62.2364 21.6396 62.0829 21.4461 61.8895C21.2527 61.696 21.0992 61.4664 20.9945 61.2136C20.8898 60.9608 20.8359 60.6899 20.8359 60.4163C20.8359 38.5559 38.5589 20.833 60.4193 20.833C60.6929 20.8329 60.9639 20.8867 61.2167 20.9914C61.4696 21.0961 61.6993 21.2495 61.8928 21.443C62.0863 21.6364 62.2399 21.8661 62.3446 22.1189C62.4493 22.3717 62.5032 22.6427 62.5032 22.9163C62.5032 23.19 62.4493 23.4609 62.3446 23.7137C62.2399 23.9666 62.0863 24.1962 61.8928 24.3897C61.6993 24.5832 61.4696 24.7366 61.2167 24.8413C60.9639 24.9459 60.6929 24.9998 60.4193 24.9997Z" fill="#FFEF9C"/>
<path d="M47.6438 74.2956H58.6541V44.4146C57.2068 44.7422 55.8111 45.1721 54.4671 45.7044C53.1438 46.2367 51.9342 46.8816 50.8383 47.6391L46 40.7908C47.7782 39.6852 49.5874 38.7537 51.4276 37.9962C53.2885 37.2182 55.1598 36.604 57.0414 36.1535C58.9436 35.6827 60.8459 35.3448 62.7481 35.1401C64.6711 34.9354 66.5836 34.833 68.4859 34.833L68.4549 34.8944H68.4859V74.2956H79V82.833H47.6438V74.2956Z" fill="#E89B05"/>
<path d="M44.6438 74.2956H55.6541V44.4146C54.2068 44.7422 52.8111 45.1721 51.4671 45.7044C50.1438 46.2367 48.9342 46.8816 47.8383 47.6391L43 40.7908C44.7782 39.6852 46.5874 38.7537 48.4276 37.9962C50.2885 37.2182 52.1598 36.604 54.0414 36.1535C55.9436 35.6827 57.8459 35.3448 59.7481 35.1401C61.6711 34.9354 63.5836 34.833 65.4859 34.833L65.4549 34.8944H65.4859V74.2956H76V82.833H44.6438V74.2956Z" fill="#BC810D"/>
</svg>
