<svg xmlns="http://www.w3.org/2000/svg" width="16" height="16" viewBox="0 0 16 16" fill="none">
  <path d="M10.7998 9.04998C10.7998 9.23563 10.8736 9.41367 11.0048 9.54495C11.1361 9.67622 11.3142 9.74998 11.4998 9.74998C11.6855 9.74998 11.8635 9.67622 11.9948 9.54495C12.1261 9.41367 12.1998 9.23563 12.1998 9.04998C12.1998 8.86432 12.1261 8.68628 11.9948 8.555C11.8635 8.42372 11.6855 8.34998 11.4998 8.34998C11.3142 8.34998 11.1361 8.42372 11.0048 8.555C10.8736 8.68628 10.7998 8.86432 10.7998 9.04998Z" fill="white"/>
  <path d="M13.5999 7.29999H11.1499C10.1827 7.29999 9.3999 8.0828 9.3999 9.04999C9.3999 10.0172 10.1827 10.8 11.1499 10.8H13.5999C14.3733 10.8 14.9999 10.1734 14.9999 9.39999V8.69999C14.9999 7.92655 14.3733 7.29999 13.5999 7.29999ZM14.2999 9.39999C14.2999 9.78592 13.9858 10.1 13.5999 10.1H11.1499C10.5702 10.1 10.0999 9.62968 10.0999 9.04999C10.0999 8.4703 10.5702 7.99999 11.1499 7.99999H13.5999C13.9858 7.99999 14.2999 8.31405 14.2999 8.69999V9.39999Z" fill="white"/>
  <path d="M13.6 11.15C13.4062 11.15 13.25 11.3063 13.25 11.5V12.2C13.25 12.9734 12.6234 13.6 11.85 13.6H3.1C2.32656 13.6 1.7 12.9734 1.7 12.2V5.90001C1.7 5.12657 2.32656 4.50001 3.1 4.50001H11.85C12.6234 4.50001 13.25 5.12657 13.25 5.90001V6.60001C13.25 6.79376 13.4062 6.95001 13.6 6.95001C13.7938 6.95001 13.95 6.79376 13.95 6.60001V5.90001C13.95 4.74532 13.0047 3.80001 11.85 3.80001H10.1562L9.50156 2.74845C9.11406 2.07657 8.40469 1.70001 7.67656 1.70001C7.32031 1.70001 6.96094 1.79064 6.63281 1.9797L2.9875 3.80626C1.88437 3.86407 1 4.78282 1 5.90001V12.2C1 13.3547 1.94531 14.3 3.1 14.3H11.85C13.0047 14.3 13.95 13.3547 13.95 12.2V11.5C13.95 11.3063 13.7938 11.15 13.6 11.15ZM6.96406 2.59689C6.97031 2.59376 6.97656 2.59064 6.98281 2.58595C7.19375 2.46407 7.43281 2.40001 7.67656 2.40001C8.17969 2.40001 8.64687 2.6672 8.89531 3.09845C8.90469 3.11564 8.91563 3.13282 8.92813 3.14845L9.31406 3.80001H4.49531L6.96406 2.59689Z" fill="white"/>
</svg>