<svg width="28" height="28" viewBox="0 0 28 28" fill="none" xmlns="http://www.w3.org/2000/svg">
<path fill-rule="evenodd" clip-rule="evenodd" d="M23.8287 25.8491C23.3757 26.0368 22.8903 26.1333 22.4 26.1333V1.86667C22.4 1.3716 22.2033 0.896802 21.8533 0.546734C21.5032 0.196666 21.0284 0 20.5333 0H1.86667C1.3716 0 0.896802 0.196666 0.546734 0.546734C0.196666 0.896802 0 1.3716 0 1.86667V22.4C0 23.8852 0.589999 25.3096 1.6402 26.3598C2.69041 27.41 4.11479 28 5.6 28H23.3333V27.9225C24.6382 27.7016 25.8227 27.0258 26.6769 26.0149C27.5311 25.0041 27.9998 23.7234 28 22.4V7.46667C28 6.9716 27.8033 6.4968 27.4533 6.14673C27.1032 5.79667 26.6284 5.6 26.1333 5.6H24.2667V7.46667H26.1333V22.4C26.1333 22.8903 26.0368 23.3757 25.8492 23.8287C25.6615 24.2816 25.3865 24.6932 25.0399 25.0399C24.6932 25.3865 24.2816 25.6615 23.8287 25.8491ZM10.6114 19.8012C9.01374 19.2957 7.83984 17.6546 7.83984 15.7145C7.83984 15.008 8.35396 14.4346 8.98828 14.4346C9.6226 14.4346 10.1367 15.008 10.1367 15.7145C10.1367 16.6454 10.8154 17.4018 11.6504 17.4018C12.4853 17.4018 13.164 16.6454 13.164 15.7145C13.164 14.7844 12.4853 14.028 11.6504 14.028C11.6067 14.028 11.5636 14.0253 11.5213 14.02C9.47054 13.8821 7.83984 11.9783 7.83984 9.65881C7.83984 7.74015 8.95561 6.10625 10.5019 5.52076V4.86341C10.5019 4.15647 11.016 3.5835 11.6504 3.5835C12.2847 3.5835 12.7992 4.15647 12.7992 4.86341V5.44592C14.4578 5.95481 15.6798 7.65087 15.6798 9.65881C15.6798 10.3657 15.1653 10.9387 14.5314 10.9387C13.8975 10.9387 13.383 10.3657 13.383 9.65881C13.383 8.66133 12.6549 7.84987 11.7598 7.84987C10.8648 7.84987 10.1367 8.66133 10.1367 9.65881C10.1367 10.6563 10.8648 11.4677 11.7598 11.4677C11.8049 11.4677 11.8493 11.4706 11.893 11.4763C13.8817 11.6162 15.4609 13.4639 15.4609 15.7145C15.4609 17.5649 14.3933 19.1433 12.9083 19.7239V20.6716C12.9083 21.3785 12.3942 21.9515 11.7598 21.9515C11.1255 21.9515 10.6114 21.3781 10.6114 20.6716V19.8012Z" fill="#B0B0B0"/>
</svg>
