<svg width="15" height="15" viewBox="0 0 15 15" fill="none" xmlns="http://www.w3.org/2000/svg">
<path d="M1.01853 8.33035H5.59525C6.15687 8.33035 6.61378 8.7892 6.61378 9.35748V13.9729C6.61378 14.5392 6.15878 15 5.59525 15H1.01853C0.456911 15 0 14.5411 0 13.9729V9.35748C0 8.79112 0.455007 8.33035 1.01853 8.33035ZM9.40475 8.33035H13.9815C14.5431 8.33035 15 8.7892 15 9.35748V13.9729C15 14.5392 14.545 15 13.9815 15H9.40475C8.84313 15 8.38622 14.5411 8.38622 13.9729V9.35748C8.38622 8.79112 8.84313 8.33035 9.40475 8.33035ZM1.01853 0H5.59525C6.15687 0 6.61378 0.458851 6.61378 1.02713V5.64252C6.61378 6.20888 6.15878 6.66965 5.59525 6.66965H1.01853C0.456911 6.66965 0 6.2108 0 5.64252V1.02521C0 0.458851 0.455007 0 1.01853 0Z" fill="#F5BC00"/>
</svg>
