<svg width="28" height="28" viewBox="0 0 28 28" fill="none" xmlns="http://www.w3.org/2000/svg">
<path d="M14.0008 22.5749C8.22578 22.5749 3.67578 20.9999 3.67578 19.0749V24.4999C3.85078 26.4249 8.40078 27.9999 14.0008 27.9999C19.6008 27.9999 24.1508 26.4249 24.3258 24.4999V18.8999C24.3258 20.9999 19.7758 22.5749 14.0008 22.5749Z" fill="#B0B0B0"/>
<path d="M14.0008 14.875C8.22578 14.875 3.67578 13.3 3.67578 11.375V16.975C3.85078 18.9 8.40078 20.475 14.0008 20.475C19.6008 20.475 24.1508 18.9 24.3258 16.975V11.375C24.3258 13.3 19.7758 14.875 14.0008 14.875Z" fill="#B0B0B0"/>
<path d="M24.3258 3.5C24.3258 1.575 19.7758 0 14.0008 0C8.22578 0 3.67578 1.575 3.67578 3.5V9.1C3.85078 11.025 8.40078 12.6 14.0008 12.6C19.6008 12.6 24.1508 11.025 24.3258 9.1V3.5ZM14.0008 5.95C9.80078 5.95 6.30078 4.725 6.30078 3.325C6.30078 1.925 9.80078 0.7 14.0008 0.7C18.2008 0.7 21.7008 1.925 21.7008 3.325C21.7008 4.9 18.2008 5.95 14.0008 5.95Z" fill="#B0B0B0"/>
</svg>
