<svg width="28" height="28" viewBox="0 0 28 28" fill="none" xmlns="http://www.w3.org/2000/svg">
<path d="M20.4766 16.2748C21.1766 16.2748 21.7016 16.4498 22.2266 16.6248V5.42481C22.2266 3.8498 20.8266 2.4498 19.2516 2.4498H16.2766C16.2766 1.2248 15.2266 0.174805 14.0016 0.174805H9.45156C8.22656 0.174805 7.17656 1.2248 7.17656 2.4498H4.20156C2.62656 2.4498 1.22656 3.8498 1.22656 5.42481V23.2748C1.22656 24.8498 2.62656 26.2498 4.20156 26.2498H15.0516C14.5266 25.3748 14.0016 24.1498 14.0016 22.7498C14.0016 19.2498 16.9766 16.2748 20.4766 16.2748ZM9.45156 1.7498H14.0016C14.3516 1.7498 14.7016 2.0998 14.7016 2.4498C14.7016 2.7998 14.3516 3.1498 14.0016 3.1498H9.45156C9.10156 3.1498 8.75156 2.7998 8.75156 2.4498C8.75156 2.0998 9.10156 1.7498 9.45156 1.7498ZM7.17656 10.1498H16.2766C16.6266 10.1498 16.9766 10.4998 16.9766 10.8498C16.9766 11.1998 16.6266 11.5498 16.2766 11.5498H7.17656C6.82656 11.5498 6.47656 11.1998 6.47656 10.8498C6.47656 10.4998 6.82656 10.1498 7.17656 10.1498ZM13.3016 18.7248H7.17656C6.82656 18.7248 6.47656 18.3748 6.47656 18.0248C6.47656 17.6748 6.82656 17.3248 7.17656 17.3248H13.1266C13.4766 17.3248 13.8266 17.6748 13.8266 18.0248C13.8266 18.3748 13.6516 18.7248 13.3016 18.7248ZM7.17656 15.2248C6.82656 15.2248 6.47656 14.8748 6.47656 14.5248C6.47656 14.1748 6.82656 13.8248 7.17656 13.8248H16.2766C16.6266 13.8248 16.9766 14.1748 16.9766 14.5248C16.9766 14.8748 16.6266 15.2248 16.2766 15.2248H7.17656Z" fill="#B0B0B0"/>
<path d="M24.4984 19.4252C22.5734 17.5002 19.4234 17.5002 17.4984 19.4252C15.5734 21.3502 15.5734 24.5002 17.4984 26.4252C19.4234 28.3502 22.5734 28.3502 24.4984 26.4252C26.4234 24.5002 26.4234 21.3502 24.4984 19.4252Z" fill="#B0B0B0"/>
<path d="M21.0016 23.3151C20.2296 23.3151 19.6016 22.6178 19.6016 21.761C19.6016 20.9042 20.2296 20.2071 21.0016 20.2071C21.7735 20.2071 22.4016 20.9042 22.4016 21.761C22.4016 22.0125 22.2178 22.2163 21.9914 22.2163C21.765 22.2163 21.5813 22.0125 21.5813 21.761C21.5813 21.4062 21.3212 21.1176 21.0016 21.1176C20.6819 21.1176 20.4219 21.4062 20.4219 21.761C20.4219 22.1158 20.6819 22.4045 21.0016 22.4045C21.2281 22.4045 21.4117 22.6083 21.4117 22.8597C21.4117 23.1112 21.2281 23.3151 21.0016 23.3151Z" fill="white"/>
<path d="M20.9625 25.4257C20.2121 25.4257 19.6016 24.7478 19.6016 23.915C19.6016 23.6637 19.7852 23.4597 20.0117 23.4597C20.2383 23.4597 20.4219 23.6637 20.4219 23.915C20.4219 24.2461 20.6643 24.5152 20.9625 24.5152C21.2606 24.5152 21.503 24.2461 21.503 23.915C21.503 23.5842 21.2606 23.3151 20.9625 23.3151C20.7359 23.3151 20.5523 23.1112 20.5523 22.8597C20.5523 22.6083 20.7359 22.4045 20.9625 22.4045C21.7129 22.4045 22.3234 23.0822 22.3234 23.915C22.3234 24.7478 21.7129 25.4257 20.9625 25.4257ZM20.9625 21.1176C20.7359 21.1176 20.5523 20.9138 20.5523 20.6624V20.0554C20.5523 19.8039 20.7359 19.6001 20.9625 19.6001C21.189 19.6001 21.3728 19.8039 21.3728 20.0554V20.6624C21.3728 20.9138 21.189 21.1176 20.9625 21.1176Z" fill="white"/>
<path d="M21.0016 26.1334C20.775 26.1334 20.5914 25.9295 20.5914 25.6782V25.0712C20.5914 24.8199 20.775 24.6159 21.0016 24.6159C21.2281 24.6159 21.4117 24.8199 21.4117 25.0712V25.6782C21.4117 25.9296 21.2281 26.1334 21.0016 26.1334Z" fill="white"/>
</svg>
