<svg width="27" height="26" viewBox="0 0 27 26" fill="none" xmlns="http://www.w3.org/2000/svg">
<path d="M27 12.4799H23.1429C22.1199 12.4799 21.1388 12.8869 20.4154 13.6114C19.6921 14.3358 19.2857 15.3183 19.2857 16.3428C19.2857 17.3673 19.6921 18.3499 20.4154 19.0743C21.1388 19.7987 22.1199 20.2057 23.1429 20.2057H27V24.0686C27 24.5808 26.7968 25.0721 26.4351 25.4343C26.0735 25.7965 25.5829 26 25.0714 26H1.92857C1.41708 26 0.926542 25.7965 0.564865 25.4343C0.203188 25.0721 0 24.5808 0 24.0686V6.68564H25.0714C25.5829 6.68564 26.0735 6.88913 26.4351 7.25134C26.7968 7.61356 27 8.10482 27 8.61707V12.4799Z" fill="#B0B0B0"/>
<path d="M1.92857 0H19.2857C19.7972 0 20.2877 0.20349 20.6494 0.565704C21.0111 0.927919 21.2143 1.41919 21.2143 1.93144V4.82859H0V1.93144C1.1988e-08 1.41919 0.203188 0.927919 0.564865 0.565704C0.926542 0.20349 1.41708 1.20058e-08 1.92857 0ZM23.1429 14.4114C23.3961 14.4114 23.647 14.4613 23.881 14.5584C24.115 14.6554 24.3276 14.7977 24.5068 14.977C24.6859 15.1564 24.828 15.3693 24.9249 15.6037C25.0218 15.838 25.0717 16.0892 25.0717 16.3428C25.0717 16.5965 25.0218 16.8477 24.9249 17.082C24.828 17.3164 24.6859 17.5293 24.5068 17.7087C24.3276 17.888 24.115 18.0303 23.881 18.1273C23.647 18.2244 23.3961 18.2743 23.1429 18.2743C22.6314 18.2742 22.141 18.0707 21.7793 17.7085C21.4177 17.3463 21.2146 16.855 21.2146 16.3428C21.2146 15.8307 21.4177 15.3394 21.7793 14.9772C22.141 14.615 22.6314 14.4115 23.1429 14.4114Z" fill="#B0B0B0"/>
</svg>
