<svg width="19" height="18" viewBox="0 0 19 18" fill="none" xmlns="http://www.w3.org/2000/svg">
<path d="M13.642 10.8C13.718 10.206 13.775 9.612 13.775 9C13.775 8.388 13.718 7.794 13.642 7.2H16.853C17.005 7.776 17.1 8.379 17.1 9C17.1 9.621 17.005 10.224 16.853 10.8M11.9605 15.804C12.5305 14.805 12.9675 13.725 13.2715 12.6H16.074C15.1536 14.1014 13.6934 15.2388 11.9605 15.804ZM11.723 10.8H7.277C7.182 10.206 7.125 9.612 7.125 9C7.125 8.388 7.182 7.785 7.277 7.2H11.723C11.8085 7.785 11.875 8.388 11.875 9C11.875 9.612 11.8085 10.206 11.723 10.8ZM9.5 16.164C8.7115 15.084 8.075 13.887 7.6855 12.6H11.3145C10.925 13.887 10.2885 15.084 9.5 16.164ZM5.7 5.4H2.926C3.83691 3.89449 5.29606 2.75534 7.03 2.196C6.46 3.195 6.0325 4.275 5.7 5.4ZM2.926 12.6H5.7C6.0325 13.725 6.46 14.805 7.03 15.804C5.29969 15.2385 3.8426 14.1009 2.926 12.6ZM2.147 10.8C1.995 10.224 1.9 9.621 1.9 9C1.9 8.379 1.995 7.776 2.147 7.2H5.358C5.282 7.794 5.225 8.388 5.225 9C5.225 9.612 5.282 10.206 5.358 10.8M9.5 1.827C10.2885 2.907 10.925 4.113 11.3145 5.4H7.6855C8.075 4.113 8.7115 2.907 9.5 1.827ZM16.074 5.4H13.2715C12.9742 4.28531 12.5339 3.20931 11.9605 2.196C13.7085 2.763 15.162 3.906 16.074 5.4ZM9.5 0C4.2465 0 0 4.05 0 9C0 11.3869 1.00089 13.6761 2.78249 15.364C4.56408 17.0518 6.98044 18 9.5 18C10.7476 18 11.9829 17.7672 13.1355 17.3149C14.2881 16.8626 15.3354 16.1997 16.2175 15.364C17.0997 14.5282 17.7994 13.5361 18.2769 12.4442C18.7543 11.3522 19 10.1819 19 9C19 6.61305 17.9991 4.32387 16.2175 2.63604C14.4359 0.948211 12.0196 0 9.5 0Z" fill="#9E9E9E"/>
</svg>
